<svg xmlns="http://www.w3.org/2000/svg" xmlns:xlink="http://www.w3.org/1999/xlink" viewBox="0 0 1367 768"><defs><style>.cls-1{fill:url(#Безымянный_градиент_192);}</style><linearGradient id="Безымянный_градиент_192" x1="1131.31" y1="130.41" x2="-288.63" y2="934.51" gradientUnits="userSpaceOnUse"><stop offset="0" stop-color="#2aa9ff"/><stop offset="0.63" stop-color="#37dff3" stop-opacity="0.37"/><stop offset="1" stop-color="#3fffec" stop-opacity="0"/></linearGradient></defs><title>back</title><g id="Слой_2" data-name="Слой 2"><g id="Слой_1-2" data-name="Слой 1"><path class="cls-1" d="M163.57,648.39c45.57,4.79,89.83,20.76,127.87,48.36,4.6,3.34,9.35,6.94,14.87,7.54s10.72-1.79,15.83-4a274.49,274.49,0,0,1,221.78,3c18.88,8.63,39.52,29.82,59.82,31.62,19.91,1.76,43.73-14.12,63.67-18.62A272.81,272.81,0,0,1,743.59,710c45.79,2.71,90.6,16.66,129.67,42.58,9.17,6.08,18.59,13,29.38,13.43,8.22.34,16.18-3.16,24-6.24,70.1-27.68,149.12-24.2,216.28,8.21H1367V274s-44-148-360-151S683,0,683,0H0V682.4C49.15,655.14,105.37,642.27,163.57,648.39Z"/></g></g></svg>